<?xml version="1.0" encoding="iso-8859-1"?>
<!-- Generator: Adobe Illustrator 19.0.0, SVG Export Plug-In . SVG Version: 6.00 Build 0)  -->
<svg version="1.1" id="Capa_1" xmlns="http://www.w3.org/2000/svg" xmlns:xlink="http://www.w3.org/1999/xlink" x="0px" y="0px"
	 viewBox="0 0 512 512" style="enable-background:new 0 0 512 512;" xml:space="preserve">
<g>
	<g>
		<g>
			<path d="M501.333,64c-5.896,0-10.667,4.771-10.667,10.667v32h-64v-32C426.667,68.771,421.896,64,416,64
				c-5.896,0-10.667,4.771-10.667,10.667v32h-220.28c1.236-1.094,2.651-1.954,3.822-3.125c4.167-4.167,4.167-10.917,0-15.083
				C173.333,72.917,151.813,64,129.833,64h-25c-21.979,0-43.5,8.917-59.042,24.458c-4.167,4.167-4.167,10.917,0,15.083
				c1.171,1.171,2.586,2.031,3.822,3.125h-28.28v-96C21.333,4.771,16.563,0,10.667,0C4.771,0,0,4.771,0,10.667v490.667
				C0,507.229,4.771,512,10.667,512h490.667c5.896,0,10.667-4.771,10.667-10.667V74.667C512,68.771,507.229,64,501.333,64z
				 M104.833,85.333h25c12.385,0,24.573,3.802,34.781,10.667c-10.208,6.865-22.396,10.667-34.781,10.667h-25
				c-12.385,0-24.573-3.802-34.781-10.667C80.26,89.135,92.448,85.333,104.833,85.333z M21.333,128h384v21.333h-384V128z
				 M21.333,170.667h384V320h-220.28c1.236-1.094,2.651-1.954,3.822-3.125c4.167-4.167,4.167-10.917,0-15.083
				c-15.542-15.542-37.063-24.458-59.042-24.458h-25c-21.979,0-43.5,8.917-59.042,24.458c-4.167,4.167-4.167,10.917,0,15.083
				c1.171,1.171,2.586,2.031,3.822,3.125h-28.28V170.667z M164.615,309.333C154.406,316.198,142.219,320,129.833,320h-25
				c-12.385,0-24.573-3.802-34.781-10.667c10.208-6.865,22.396-10.667,34.781-10.667h25
				C142.219,298.667,154.406,302.469,164.615,309.333z M21.333,341.333h384v21.333h-384V341.333z M490.667,490.667H21.333V384
				h469.333V490.667z M490.667,362.667h-64v-21.333h64V362.667z M490.667,320h-64v-21.333h64V320z M490.667,277.333h-64V256h64
				V277.333z M490.667,234.667h-64v-21.333h64V234.667z M490.667,192h-64v-21.333h64V192z M490.667,149.333h-64V128h64V149.333z"/>
			<path d="M74.667,448h42.667c5.896,0,10.667-4.771,10.667-10.667c0-5.896-4.771-10.667-10.667-10.667H74.667
				c-5.896,0-10.667,4.771-10.667,10.667C64,443.229,68.771,448,74.667,448z"/>
			<path d="M394.667,448h42.667c5.896,0,10.667-4.771,10.667-10.667c0-5.896-4.771-10.667-10.667-10.667h-42.667
				c-5.896,0-10.667,4.771-10.667,10.667C384,443.229,388.771,448,394.667,448z"/>
		</g>
	</g>
</g>
<g>
</g>
<g>
</g>
<g>
</g>
<g>
</g>
<g>
</g>
<g>
</g>
<g>
</g>
<g>
</g>
<g>
</g>
<g>
</g>
<g>
</g>
<g>
</g>
<g>
</g>
<g>
</g>
<g>
</g>
</svg>
