<?xml version="1.0" encoding="iso-8859-1"?>
<!-- Generator: Adobe Illustrator 19.0.0, SVG Export Plug-In . SVG Version: 6.00 Build 0)  -->
<svg version="1.1" id="Capa_1" xmlns="http://www.w3.org/2000/svg" xmlns:xlink="http://www.w3.org/1999/xlink" x="0px" y="0px"
	 viewBox="0 0 512 512" style="enable-background:new 0 0 512 512;" xml:space="preserve">
<path style="fill:#303C42;" d="M501.333,64c-5.896,0-10.667,4.771-10.667,10.667v32h-64v-32C426.667,68.771,421.896,64,416,64
	c-5.896,0-10.667,4.771-10.667,10.667v32h-220.28c1.236-1.094,2.651-1.954,3.822-3.125c4.167-4.167,4.167-10.917,0-15.083
	C173.333,72.917,151.813,64,129.833,64h-25c-21.979,0-43.5,8.917-59.042,24.458c-4.167,4.167-4.167,10.917,0,15.083
	c1.171,1.171,2.586,2.031,3.822,3.125h-28.28v-96C21.333,4.771,16.563,0,10.667,0S0,4.771,0,10.667v490.667
	C0,507.229,4.771,512,10.667,512h490.667c5.896,0,10.667-4.771,10.667-10.667V74.667C512,68.771,507.229,64,501.333,64z
	 M405.333,320h-220.28c1.236-1.094,2.651-1.954,3.822-3.125c4.167-4.167,4.167-10.917,0-15.083
	c-15.542-15.542-37.063-24.458-59.042-24.458h-25c-21.979,0-43.5,8.917-59.042,24.458c-4.167,4.167-4.167,10.917,0,15.083
	c1.171,1.171,2.586,2.031,3.822,3.125h-28.28V170.667h384V320z M490.667,362.667h-64v-21.333h64V362.667z M490.667,320h-64v-21.333
	h64V320z M490.667,277.333h-64V256h64V277.333z M490.667,234.667h-64v-21.333h64V234.667z M490.667,192h-64v-21.333h64V192z
	 M490.667,149.333h-64V128h64V149.333z"/>
<g>
	<rect x="21.333" y="341.333" style="fill:#F3F3F3;" width="384" height="21.333"/>
	<path style="fill:#F3F3F3;" d="M70.052,309.333c10.208-6.865,22.396-10.667,34.781-10.667h25c12.385,0,24.573,3.802,34.781,10.667
		C154.406,316.198,142.219,320,129.833,320h-25C92.448,320,80.26,316.198,70.052,309.333z"/>
	<path style="fill:#F3F3F3;" d="M70.052,96c10.208-6.865,22.396-10.667,34.781-10.667h25c12.385,0,24.573,3.802,34.781,10.667
		c-10.208,6.865-22.396,10.667-34.781,10.667h-25C92.448,106.667,80.26,102.865,70.052,96z"/>
	<rect x="21.333" y="128" style="fill:#F3F3F3;" width="384" height="21.333"/>
</g>
<rect id="SVGCleanerId_0" x="21.333" y="384" style="fill:#BF6B29;" width="469.333" height="106.667"/>
<g>
	<rect id="SVGCleanerId_0_1_" x="21.333" y="384" style="fill:#BF6B29;" width="469.333" height="106.667"/>
</g>
<path style="opacity:0.1;fill:#010101;enable-background:new    ;" d="M469.333,384v50.667c0,19.146-15.521,34.667-34.667,34.667
	H21.333v21.333h469.333V384H469.333z"/>
<g>
	<path style="fill:#303C42;" d="M117.333,426.667H74.667c-5.896,0-10.667,4.771-10.667,10.667S68.771,448,74.667,448h42.667
		c5.896,0,10.667-4.771,10.667-10.667S123.229,426.667,117.333,426.667z"/>
	<path style="fill:#303C42;" d="M384,437.333c0,5.896,4.771,10.667,10.667,10.667h42.667c5.896,0,10.667-4.771,10.667-10.667
		s-4.771-10.667-10.667-10.667h-42.667C388.771,426.667,384,431.438,384,437.333z"/>
</g>
<linearGradient id="SVGID_1_" gradientUnits="userSpaceOnUse" x1="-49.5818" y1="639.9221" x2="-20.9735" y2="626.5825" gradientTransform="matrix(21.3333 0 0 -21.3333 996.3334 13791.667)">
	<stop  offset="0" style="stop-color:#FFFFFF;stop-opacity:0.2"/>
	<stop  offset="1" style="stop-color:#FFFFFF;stop-opacity:0"/>
</linearGradient>
<path style="fill:url(#SVGID_1_);" d="M501.333,64c-5.896,0-10.667,4.771-10.667,10.667v32h-64v-32
	C426.667,68.771,421.896,64,416,64c-5.896,0-10.667,4.771-10.667,10.667v32h-220.28c1.236-1.094,2.651-1.954,3.822-3.125
	c4.167-4.167,4.167-10.917,0-15.083C173.333,72.917,151.813,64,129.833,64h-25c-21.979,0-43.5,8.917-59.042,24.458
	c-4.167,4.167-4.167,10.917,0,15.083c1.171,1.171,2.586,2.031,3.822,3.125h-28.28v-96C21.333,4.771,16.563,0,10.667,0
	S0,4.771,0,10.667v490.667C0,507.229,4.771,512,10.667,512h490.667c5.896,0,10.667-4.771,10.667-10.667V74.667
	C512,68.771,507.229,64,501.333,64z M405.333,320h-220.28c1.236-1.094,2.651-1.954,3.822-3.125c4.167-4.167,4.167-10.917,0-15.083
	c-15.542-15.542-37.063-24.458-59.042-24.458h-25c-21.979,0-43.5,8.917-59.042,24.458c-4.167,4.167-4.167,10.917,0,15.083
	c1.171,1.171,2.586,2.031,3.822,3.125h-28.28V170.667h384V320z M490.667,362.667h-64v-21.333h64V362.667z M490.667,320h-64v-21.333
	h64V320z M490.667,277.333h-64V256h64V277.333z M490.667,234.667h-64v-21.333h64V234.667z M490.667,192h-64v-21.333h64V192z
	 M490.667,149.333h-64V128h64V149.333z"/>
<g>
</g>
<g>
</g>
<g>
</g>
<g>
</g>
<g>
</g>
<g>
</g>
<g>
</g>
<g>
</g>
<g>
</g>
<g>
</g>
<g>
</g>
<g>
</g>
<g>
</g>
<g>
</g>
<g>
</g>
</svg>
